# xmcd CD database file
#
# Track frame offsets:
#	150
#	17404
#	31345
#	48111
#	65612
#	79709
#	93799
#	111454
#	126444
#	140721
#	158308
#	173925
#	189506
#	205212
#	221865
#	241361
#	258238
#	272561
#	290217
#	303008
#
# Disc length: 4262 seconds
#
# Revision: 1
# Processed by: cddbd v1.5.2PL0 Copyright (c) Steve Scherf et al.
# Submitted via: CDex 1.70beta2
#
DISCID=1c10a414
DTITLE=Various Artist - CDX Volume 469
DYEAR=2009
DGENRE=Country
TTITLE0=Pat Green - Country Star
TTITLE1=Sugarland - It Happens
TTITLE2=Jonathan Singleton - Living In Paradise
TTITLE3=Love And Theft - Runaway
TTITLE4=Dierks Bentley - Sideways
TTITLE5=Alan Jackson - Sissy's Song
TTITLE6=Daryle Singletary - Love You With The Lights On
TTITLE7=Michael Scott - Bring It On
TTITLE8=Stella Parton - Family Ties
TTITLE9=Rebel Hearts - Jesse Dunn
TTITLE10=Richard Jaymes - Dollar And A Dream
TTITLE11=Timothy Craig - Got Good Friends
TTITLE12=Matt Gary - The Days You Live For
TTITLE13=Neil Carswell - Bright Lights
TTITLE14=Danielle Reed - Kissing In The Rain
TTITLE15=Daniel Smith - Man Like Me
TTITLE16=Ken Hatton - Small Town Girl
TTITLE17=Ronnie Milsap - Stand By Me
TTITLE18=Ronnie Milsap - Up To Zion
TTITLE19=Ronnie Milsap - World Of Wonder
EXTD=YEAR: 2009
EXTT0=
EXTT1=
EXTT2=
EXTT3=
EXTT4=
EXTT5=
EXTT6=
EXTT7=
EXTT8=
EXTT9=
EXTT10=
EXTT11=
EXTT12=
EXTT13=
EXTT14=
EXTT15=
EXTT16=
EXTT17=
EXTT18=
EXTT19=
PLAYORDER=
